<svg width="35" height="35" viewBox="0 0 35 35" fill="none" xmlns="http://www.w3.org/2000/svg">
<path d="M23.3333 34.9999V29.1666C26.5611 29.1666 29.1666 26.561 29.1666 23.3333H35C35 29.7888 29.7694 34.9999 23.3333 34.9999Z" fill="#FFD11A"/>
<path d="M23.3333 34.9999V29.1666C20.1055 29.1666 17.5 26.561 17.5 23.3333H11.6667C11.6667 29.7888 16.8972 34.9999 23.3333 34.9999Z" fill="#FFD11A"/>
<path d="M0 23.3335H5.83333C5.83333 26.5613 8.43889 29.1668 11.6667 29.1668V35.0002C5.23056 35.0002 0 29.7891 0 23.3335Z" fill="#FFD11A"/>
<path d="M0 23.3334H5.83333C5.83333 20.1056 8.43889 17.5001 11.6667 17.5001V11.6667C5.23056 11.6667 0 16.8973 0 23.3334Z" fill="#FFD11A"/>
<path d="M11.6667 0V5.83333C8.43889 5.83333 5.83333 8.43889 5.83333 11.6667H0C0 5.23056 5.23056 0 11.6667 0Z" fill="#FFD11A"/>
<path d="M11.6667 0V5.83333C14.8944 5.83333 17.5 8.43889 17.5 11.6667H23.3333C23.3333 5.23056 18.1028 0 11.6667 0Z" fill="#FFD11A"/>
<path d="M35 11.6667H29.1667C29.1667 8.43889 26.5611 5.83333 23.3333 5.83333V0C29.7695 0 35 5.23056 35 11.6667Z" fill="#FFD11A"/>
<path d="M35 11.6667H29.1667C29.1667 14.8945 26.5612 17.5001 23.3334 17.5001V23.3334C29.7695 23.3334 35 18.1223 35 11.6667Z" fill="#FFD11A"/>
</svg>
